<svg width="114" height="106" viewBox="0 0 114 106" fill="none" xmlns="http://www.w3.org/2000/svg">
<path d="M3.63379 30.3695C5.19629 30.4183 6.56348 30.4427 7.73535 30.4427C8.90723 30.3939 9.85938 30.3695 10.5918 30.3695H12.7158C13.2529 30.3207 13.9121 30.2963 14.6934 30.2963C15.377 30.2963 16.207 30.2963 17.1836 30.2963C18.1602 30.2963 19.2832 30.3207 20.5527 30.3695C20.9434 31.7367 21.3828 33.0795 21.8711 34.3978C22.4082 35.6674 22.8721 36.8148 23.2627 37.8402C23.751 39.0609 24.2393 40.2084 24.7275 41.2826C25.2158 42.3568 25.8018 43.6508 26.4854 45.1644C27.0713 46.434 27.7793 47.9965 28.6094 49.8519C29.4395 51.6586 30.416 53.7338 31.5391 56.0775C32.0762 54.5638 32.5645 53.1722 33.0039 51.9027C33.4922 50.6332 33.9072 49.5345 34.249 48.6068C34.6396 47.5326 34.957 46.556 35.2012 45.6771C35.4453 44.7982 35.7139 43.724 36.0068 42.4545C36.251 41.3802 36.5195 40.0863 36.8125 38.5726C37.1543 37.059 37.4961 35.3011 37.8379 33.2992C39.2539 33.2992 40.5234 33.2992 41.6465 33.2992C42.7695 33.2992 43.7461 33.2748 44.5762 33.226C45.5039 33.226 46.334 33.2015 47.0664 33.1527C47.8477 33.1527 48.8975 33.1039 50.2158 33.0062C51.3389 32.9086 52.8281 32.8353 54.6836 32.7865C56.5879 32.6888 58.9316 32.5668 61.7148 32.4203C60.6895 33.1527 59.8594 33.8851 59.2246 34.6176C58.6387 35.3011 58.1748 35.9115 57.833 36.4486C57.4424 37.0834 57.1982 37.6937 57.1006 38.2797C57.0029 38.7679 56.9053 39.891 56.8076 41.6488C56.7588 43.4066 56.6855 45.5062 56.5879 47.9476C56.5391 50.3402 56.4902 52.9037 56.4414 55.6381C56.4414 58.3724 56.4658 60.9603 56.5146 63.4017C56.5635 65.8431 56.6367 67.9672 56.7344 69.7738C56.8809 71.5316 57.0762 72.6547 57.3203 73.1429C57.6621 73.7289 58.126 74.4125 58.7119 75.1937C59.249 75.8773 59.9326 76.6586 60.7627 77.5375C61.6416 78.4164 62.7891 79.3929 64.2051 80.4672C61.959 80.5648 60.0791 80.6381 58.5654 80.6869C57.1006 80.7357 55.8799 80.7845 54.9033 80.8334C53.7803 80.8822 52.877 80.9066 52.1934 80.9066C51.4609 80.9066 50.46 80.931 49.1904 80.9799C48.0674 81.0287 46.5781 81.1019 44.7227 81.1996C42.8672 81.2484 40.4746 81.3461 37.5449 81.4926C38.2285 80.7113 38.8633 79.9301 39.4492 79.1488C40.0352 78.3676 40.5234 77.6595 40.9141 77.0248C41.4023 76.2924 41.8174 75.5844 42.1592 74.9008C42.501 73.973 42.7695 72.2885 42.9648 69.847C43.1602 67.7474 43.3066 64.7445 43.4043 60.8383C43.502 56.8832 43.502 51.5853 43.4043 44.9447C42.4766 46.4584 41.6465 47.972 40.9141 49.4857C40.2305 50.9506 39.6201 52.2933 39.083 53.514C38.4971 54.9301 37.96 56.2972 37.4717 57.6156C36.9834 58.9828 36.4707 60.4965 35.9336 62.1566C35.4453 63.5726 34.8594 65.2572 34.1758 67.2103C33.541 69.1635 32.8086 71.3119 31.9785 73.6556L29.1953 73.8021C28.8047 71.849 28.4141 70.0912 28.0234 68.5287C27.6328 66.9174 27.2422 65.5502 26.8516 64.4271C26.4121 63.1088 25.9727 61.9369 25.5332 60.9115C25.0449 59.8861 24.5078 58.7386 23.9219 57.4691C23.3848 56.3949 22.7256 55.1254 21.9443 53.6605C21.2119 52.1957 20.3574 50.5599 19.3809 48.7533C18.8926 53.7338 18.5996 57.7865 18.502 60.9115C18.4043 63.9877 18.4043 66.3802 18.502 68.0892C18.5996 70.14 18.7461 71.6293 18.9414 72.557C19.2344 73.3871 19.6982 74.3148 20.333 75.3402C20.8701 76.2191 21.6025 77.2689 22.5303 78.4896C23.5068 79.6615 24.752 80.9799 26.2656 82.4447C25.1914 82.4447 24.0684 82.4447 22.8965 82.4447C21.7246 82.4447 20.6504 82.4691 19.6738 82.5179C18.502 82.5668 17.3545 82.5912 16.2314 82.5912C15.0596 82.64 13.6924 82.7133 12.1299 82.8109C10.7627 82.9086 9.12695 83.0062 7.22266 83.1039C5.31836 83.2015 3.12109 83.3724 0.630859 83.6166C1.70508 82.933 2.58398 82.2738 3.26758 81.639C3.95117 80.9554 4.48828 80.3451 4.87891 79.808C5.36719 79.1732 5.7334 78.5385 5.97754 77.9037C6.12402 77.5131 6.24609 76.6586 6.34375 75.3402C6.49023 74.0219 6.6123 72.4105 6.70996 70.5062C6.85645 68.6019 6.9541 66.4779 7.00293 64.1342C7.10059 61.7904 7.17383 59.4222 7.22266 57.0297C7.32031 54.5883 7.39355 52.2201 7.44238 49.9252C7.49121 47.5814 7.51562 45.4818 7.51562 43.6263C7.56445 41.722 7.58887 40.1351 7.58887 38.8656C7.58887 37.5961 7.58887 36.7904 7.58887 36.4486C7.44238 35.7162 7.22266 34.9838 6.92969 34.2513C6.68555 33.6166 6.29492 32.9574 5.75781 32.2738C5.2207 31.5902 4.5127 30.9554 3.63379 30.3695Z" fill="#FF0000"/>
<path d="M89.9291 89.3456C72.3987 99.1782 13.9559 27.1969 31.0834 14.2435C31.4667 13.9536 31.9305 13.7563 32.3998 13.6525C38.2405 12.3601 45.7946 14.2158 54.7097 25.9312L57.0158 25.0146L69.4409 20.0758C70.9906 19.4598 72.6773 19.2081 74.3175 19.5093C78.2062 20.2232 80.3357 21.4242 82.296 24.0104C82.8595 24.7539 83.1153 25.6776 83.1666 26.6091C83.5555 33.6651 85.832 37.0106 92.0544 40.8314C92.754 41.2609 93.3732 41.8319 93.7449 42.5639C95.109 45.2501 95.2533 47.8369 94.0811 51.6955C93.6055 53.2608 92.6216 54.6141 91.3891 55.6899L81.2919 64.5038L79.5343 66.038C85.3574 77.5195 93.8204 82.2897 91.1253 88.0566C90.8729 88.5966 90.449 89.0541 89.9291 89.3456Z" fill="#F0E6E6"/>
<path d="M54.7097 25.9312C45.7946 14.2158 38.2405 12.3601 32.3998 13.6525C31.9305 13.7563 31.4667 13.9536 31.0834 14.2435C13.9559 27.1969 72.3987 99.1782 89.9291 89.3456C90.449 89.0541 90.8729 88.5966 91.1253 88.0566C93.8204 82.2897 85.3574 77.5195 79.5343 66.038M54.7097 25.9312L57.0158 25.0146M54.7097 25.9312L51.9316 27.1168C49.8604 28.0007 48.6233 30.1628 48.9927 32.3842C51.8439 49.5289 57.3242 58.2632 71.0906 68.3802C72.9321 69.7335 75.4625 69.583 77.1861 68.0824L79.5343 66.038M54.7097 25.9312C54.2839 29.9067 57.1076 35.5982 56.9951 34.3169M79.5343 66.038L81.292 64.5038M79.5343 66.038C76.9812 64.9108 75.5341 63.489 72.933 59.968M57.0158 25.0146L69.4409 20.0758C70.9906 19.4598 72.6773 19.2081 74.3175 19.5093C78.2062 20.2232 80.3357 21.4242 82.296 24.0104C82.8595 24.7539 83.1153 25.6776 83.1666 26.6091C83.5555 33.6651 85.832 37.0106 92.0544 40.8314C92.754 41.2609 93.3732 41.8319 93.7449 42.5639C95.109 45.2501 95.2533 47.8369 94.0811 51.6955C93.6055 53.2608 92.6216 54.6141 91.3891 55.6899L81.292 64.5038M57.0158 25.0146C60.0122 43.5191 64.9548 52.3426 81.292 64.5038" stroke="black"/>
<path d="M51.9631 26.3835C52.4862 26.0124 53.076 25.6927 53.7364 25.4297C53.0942 25.7138 52.5038 26.0327 51.9631 26.3835C38.8529 35.6849 67.7115 77.25 79.7662 66.256C68.6731 82.1929 34.5336 37.6918 51.9631 26.3835Z" fill="#979191"/>
<path d="M90.0891 44.4187C88.2795 46.2256 74.594 34.1629 77.6807 26.6069C77.9818 25.8699 78.9477 26.0459 79.1859 26.8056C82.3154 36.7862 84.33 38.6524 89.8995 43.6176C90.1364 43.8289 90.3137 44.1944 90.0891 44.4187Z" fill="#C4C4C4"/>
<path d="M71.0468 68.2888C57.025 58.103 51.024 49.9552 48.9948 32.3212C48.7468 30.1657 50.0018 28.1318 52.0066 27.3022L54.295 26.3551L56.8486 25.2917C60.4655 43.5322 65.5742 51.8069 81.0707 64.4185L78.5071 66.8385L77.11 68.0244C75.3829 69.4905 72.8797 69.6202 71.0468 68.2888Z" fill="#FF0000"/>
<path d="M54.295 26.3551L52.0066 27.3022C50.0018 28.1318 48.7468 30.1657 48.9948 32.3212C51.024 49.9552 57.025 58.103 71.0468 68.2888C72.8797 69.6202 75.3829 69.4905 77.11 68.0244L78.5071 66.8385M54.295 26.3551C54.7385 29.1188 55.1846 31.2307 56.6482 34.5764M54.295 26.3551L56.8486 25.2917C60.4655 43.5322 65.5742 51.8069 81.0707 64.4185L78.5071 66.8385M78.5071 66.8385C76.5671 65.3302 75.3922 64.3174 72.9908 61.1603" stroke="black"/>
<path d="M35.3875 15.2826C30.3792 14.056 28.544 20.481 31.7409 30.5668C30.3753 23.6141 33.6537 17.2017 35.3875 15.2826Z" fill="#A29999"/>
<path d="M45.0413 52.202C54.8118 68.9222 74.2531 85.6172 84.0722 86.8992C71.3912 81.4178 56.4828 66.9794 45.0413 52.202Z" fill="#8C8686"/>
</svg>
